<!DOCTYPE svg PUBLIC "-//W3C//DTD SVG 1.1//EN" "http://www.w3.org/Graphics/SVG/1.1/DTD/svg11.dtd">
<!-- Uploaded to: SVG Repo, www.svgrepo.com, Transformed by: SVG Repo Mixer Tools -->
<svg fill="#fffafa" height="800px" width="800px" version="1.1" id="Layer_1" xmlns="http://www.w3.org/2000/svg" xmlns:xlink="http://www.w3.org/1999/xlink" viewBox="0 0 502.4 502.4" xml:space="preserve">
<g id="SVGRepo_bgCarrier" stroke-width="0"/>
<g id="SVGRepo_tracerCarrier" stroke-linecap="round" stroke-linejoin="round"/>
<g id="SVGRepo_iconCarrier"> <g> <g> <path d="M481.066,89.067H376.533C370.133,40,327.466,0.533,276.267,0.533h-50.133c-51.2,0-93.867,39.467-100.267,88.533H21.333 C9.6,89.067,0,98.667,0,110.4v370.133c0,11.733,9.6,21.333,21.333,21.333H480c11.733,0,21.333-9.6,22.4-21.333V110.4 C502.4,98.667,492.8,89.067,481.066,89.067z M225.066,42.133H275.2c28.8,0,53.333,20.267,58.667,46.933h-166.4 C172.8,62.4,197.333,42.133,225.066,42.133z M41.6,460.267V278.933h187.733v16c0,11.733,9.6,21.333,21.333,21.333 S272,307.734,272,294.933v-16h186.667v181.333H41.6z M459.733,236.267H272v-14.933C272,209.6,262.4,200,250.666,200 s-21.333,9.6-21.333,21.333v14.933H41.6V131.734h418.133V236.267z"/> </g> </g> </g>
</svg>